<svg width="167" height="48" viewBox="0 0 167 48" fill="none" xmlns="http://www.w3.org/2000/svg">
<path fill-rule="evenodd" clip-rule="evenodd" d="M10.9425 0C18.3075 0 21.9585 3.585 21.9585 11.5605V36.6075C21.9585 44.4165 18.372 48 10.9425 48C3.5145 48 0 44.415 0 36.6075V11.5605C0 3.5835 3.5775 0 10.9425 0ZM156.185 0C163.046 0 166.264 3.3525 166.264 10.464V13.488L158.404 14.4795V10.3995C158.404 7.4085 157.606 6.2805 156.009 6.2805C154.809 6.2805 154.186 7.1445 154.186 8.6805C154.186 10.9035 154.986 13.9605 158.181 18.3765L161.296 22.8C164.412 27.216 166.999 31.335 166.999 37.545C166.999 44.3595 163.421 47.9445 156.519 47.9445C149.619 47.9445 145.968 44.448 145.968 36.936V33.048L154.163 31.9995V36.984C154.163 40.3035 154.898 41.568 156.72 41.568C157.95 41.568 158.645 40.5675 158.645 38.808C158.645 35.4165 157.486 32.0955 154.467 27.6795L151.448 23.232C148.46 18.807 146.04 15.057 146.04 10.272C146.064 3.1995 149.547 0 156.185 0ZM31.0965 0.7275L32.622 21.2955C32.9895 26.0955 33.1245 29.3685 33.189 35.0475H33.915C34.02 29.4 34.1865 26.0085 34.5465 21.2955L36.144 0.7275H44.4675L45.993 21.2955C46.353 26.0085 46.488 29.4 46.593 35.0475H47.319C47.454 29.4 47.583 26.112 47.949 21.2955L49.4775 0.7275H57.705L52.1595 47.2395H42.5745L41.4795 32.8005C41.016 26.9595 40.7535 22.3995 40.554 16.3275H39.858C39.627 22.44 39.387 26.9205 38.9235 32.8005L37.8285 47.2005H28.3155L22.509 0.7275H31.0965ZM67.4715 0.7275V40.224H74.661V47.2395H58.845V0.7275H67.4715ZM90.5325 0.7275V40.224H97.722V47.2395H81.9135V0.7275H90.5325ZM116.092 0.7275L122.212 47.2395H113.272L112.811 41.2875H107.636L107.171 47.2395H98.88L104.749 0.7275H116.092ZM135.648 0.7275C141.687 0.7275 144.243 3.5205 144.243 9.7995V15.2805C144.243 19.728 142.445 21.624 139.626 22.6245V23.352C142.821 24.48 144.834 26.7765 144.834 31.9605V37.9035C144.834 44.304 142.086 47.2395 136.047 47.2395H123.347V0.7275H135.646H135.648ZM10.974 6.7125C9.4095 6.7125 8.658 7.9035 8.658 10.3995V37.8315C8.658 40.1595 9.417 41.2875 10.974 41.2875C12.5325 41.2875 13.299 40.1595 13.299 37.8315V10.3995C13.299 7.9035 12.54 6.7125 10.974 6.7125ZM133.89 26.208H131.965V40.608L133.89 40.56C135.415 40.56 136.016 39.7605 136.016 37.5675V29.0955C136.016 26.976 135.415 26.208 133.89 26.208ZM110.509 12.0555H109.815C109.68 18.0075 109.447 21.528 109.089 27.408L108.29 35.4075H112.107L111.309 27.408C110.942 21.528 110.709 18.0075 110.509 12.0555ZM133.794 7.344H131.964V19.9995H133.794C135.32 19.9995 135.911 19.3035 135.911 17.2395V10.2C135.911 8.1045 135.32 7.344 133.796 7.344H133.794Z" fill="#141414"/>
</svg>
