<svg width="16" height="16" viewBox="0 0 16 16" fill="none" xmlns="http://www.w3.org/2000/svg">
<path fill-rule="evenodd" clip-rule="evenodd" d="M9.13298 0C10.312 0.005 10.623 0.0169999 11.299 0.0479999C12.15 0.0869999 12.732 0.222 13.241 0.42C13.767 0.624 14.213 0.898 14.658 1.342C15.102 1.787 15.376 2.233 15.58 2.759C15.778 3.269 15.913 3.849 15.952 4.701C15.983 5.377 15.995 5.688 15.999 6.867L16 7.269V9.133C15.995 10.312 15.983 10.623 15.952 11.299C15.913 12.15 15.778 12.732 15.58 13.241C15.376 13.767 15.102 14.213 14.658 14.658C14.213 15.102 13.767 15.376 13.241 15.58C12.731 15.778 12.151 15.913 11.299 15.952C10.623 15.983 10.312 15.995 9.13298 15.999L8.73098 16H7.26898C5.74998 15.998 5.44898 15.986 4.70098 15.952C3.84998 15.913 3.26798 15.778 2.75898 15.58C2.23298 15.376 1.78698 15.102 1.34198 14.658C0.897977 14.213 0.623977 13.767 0.419977 13.241C0.221977 12.731 0.0869765 12.151 0.0479765 11.299C0.0169765 10.623 0.00497656 10.312 0.000976562 9.133V6.867C0.00497656 5.688 0.0169765 5.377 0.0479765 4.701C0.0869765 3.85 0.221977 3.268 0.419977 2.759C0.623977 2.233 0.897977 1.787 1.34198 1.342C1.78698 0.898 2.23298 0.624 2.75898 0.42C3.26898 0.222 3.84898 0.0869999 4.70098 0.0479999C5.37698 0.0169999 5.68798 0.00499993 6.86698 0.000999928L9.13298 0ZM8.92298 1.442H7.07698C6.22298 1.444 5.79998 1.449 5.41598 1.462L5.15098 1.471L4.76698 1.488C3.98698 1.523 3.56298 1.654 3.28198 1.763C2.90798 1.908 2.64198 2.082 2.36198 2.362C2.08198 2.642 1.90798 2.908 1.76298 3.282C1.65298 3.563 1.52298 3.987 1.48798 4.767L1.47098 5.151L1.46098 5.416C1.44898 5.8 1.44398 6.223 1.44098 7.077V8.923C1.44398 9.777 1.44898 10.2 1.46098 10.584L1.47098 10.849L1.48798 11.233C1.52298 12.013 1.65398 12.437 1.76298 12.718C1.90798 13.092 2.08198 13.358 2.36198 13.638C2.64198 13.918 2.90798 14.092 3.28198 14.237C3.56298 14.347 3.98698 14.477 4.76698 14.512L5.15098 14.529L5.41598 14.539C5.79998 14.551 6.22298 14.556 7.07698 14.559H8.92298C9.77698 14.556 10.2 14.551 10.584 14.539L10.849 14.529L11.233 14.512C12.013 14.477 12.437 14.346 12.718 14.237C13.092 14.092 13.358 13.918 13.638 13.638C13.918 13.358 14.092 13.092 14.237 12.718C14.347 12.437 14.477 12.013 14.512 11.233L14.529 10.849L14.539 10.584C14.551 10.2 14.556 9.777 14.559 8.923V7.077C14.556 6.223 14.551 5.8 14.539 5.416L14.529 5.151L14.512 4.767C14.477 3.987 14.346 3.563 14.237 3.282C14.092 2.908 13.918 2.642 13.638 2.362C13.358 2.082 13.092 1.908 12.718 1.763C12.437 1.653 12.013 1.523 11.233 1.488L10.849 1.471L10.584 1.461C10.2 1.449 9.77698 1.444 8.92298 1.441V1.442ZM7.99998 3.892C10.269 3.892 12.108 5.731 12.108 8C12.108 10.269 10.269 12.108 7.99998 12.108C5.73098 12.108 3.89198 10.269 3.89198 8C3.89198 5.731 5.73098 3.892 7.99998 3.892ZM7.99998 5.333C6.52698 5.333 5.33298 6.527 5.33298 8C5.33298 9.473 6.52698 10.667 7.99998 10.667C9.47298 10.667 10.667 9.473 10.667 8C10.667 6.527 9.47298 5.333 7.99998 5.333ZM12.27 2.769C12.8 2.769 13.23 3.199 13.23 3.729C13.23 4.259 12.8 4.689 12.27 4.689C11.74 4.689 11.31 4.259 11.31 3.729C11.31 3.199 11.74 2.769 12.27 2.769Z" fill="white"/>
</svg>
