<svg width="15" height="14" viewBox="0 0 15 14" fill="none" xmlns="http://www.w3.org/2000/svg">
<path fill-rule="evenodd" clip-rule="evenodd" d="M15 14H11.685V9.078C11.685 7.79 11.166 6.911 10.025 6.911C9.154 6.911 8.669 7.504 8.443 8.076C8.358 8.281 8.371 8.567 8.371 8.853V14H5.087C5.087 14 5.129 5.282 5.087 4.49H8.371V5.982C8.565 5.329 9.615 4.398 11.29 4.398C13.368 4.398 15 5.766 15 8.712V14ZM1.766 3.3H1.744C0.686 3.3 0 2.573 0 1.65C0 0.711 0.706 0 1.786 0C2.865 0 3.528 0.71 3.549 1.649C3.549 2.57 2.865 3.299 1.766 3.299V3.3ZM0.378 4.49H3.302V14H0.378V4.49Z" fill="white"/>
</svg>
