<svg width="16" height="12" viewBox="0 0 16 12" fill="none" xmlns="http://www.w3.org/2000/svg">
<path fill-rule="evenodd" clip-rule="evenodd" d="M14.202 1.87C14.202 1.87 15.485 1.777 16 1.42C16 1.42 15.877 1.83 14.332 3.128C14.332 3.128 14.852 10.131 6.93 11.846C6.93 11.846 2.912 12.642 0 10.612C0 10.612 3.048 11.115 4.763 9.357C4.763 9.357 2.551 9.377 1.851 7.285C1.851 7.285 2.686 7.452 3.183 7.243C3.183 7.243 0.677 6.762 0.723 4.23C0.723 4.23 1.4 4.69 2.009 4.606C2.009 4.606 -0.248 2.827 1.151 0.61C1.151 0.61 4.175 3.925 7.923 3.728C7.858 3.491 7.823 3.242 7.823 2.985C7.823 1.337 9.265 0 11.043 0C11.942 0 12.755 0.342 13.339 0.892C13.768 0.899 14.649 0.828 15.529 0.244C15.529 0.244 15.579 0.882 14.202 1.871V1.87Z" fill="white"/>
</svg>
