<svg width="16" height="12" viewBox="0 0 16 12" fill="none" xmlns="http://www.w3.org/2000/svg">
<path fill-rule="evenodd" clip-rule="evenodd" d="M6.348 8.213V3.419L10.67 5.824L6.348 8.213ZM15.84 2.589C15.84 2.589 15.683 1.413 15.204 0.895C14.596 0.215 13.914 0.212 13.601 0.173C11.362 -1.3411e-07 8.004 0 8.004 0H7.996C7.996 0 4.638 -1.3411e-07 2.4 0.173C2.087 0.213 1.405 0.215 0.796 0.895C0.317 1.413 0.161 2.589 0.161 2.589C0.161 2.589 0 3.969 0 5.349V6.644C0 8.025 0.16 9.406 0.16 9.406C0.16 9.406 0.316 10.581 0.795 11.099C1.405 11.779 2.204 11.757 2.56 11.829C3.84 11.958 8 12 8 12C8 12 11.362 11.995 13.601 11.822C13.914 11.782 14.596 11.779 15.204 11.099C15.684 10.581 15.84 9.406 15.84 9.406C15.84 9.406 16 8.026 16 6.644V5.35C16 3.97 15.84 2.589 15.84 2.589Z" fill="white"/>
</svg>
